<?xml version="1.0"?>
<svg xmlns="http://www.w3.org/2000/svg" xmlns:xlink="http://www.w3.org/1999/xlink" version="1.1" id="Capa_1" x="0px" y="0px" viewBox="0 0 176.992 176.992" style="enable-background:new 0 0 176.992 176.992;" xml:space="preserve" width="512px" height="512px" class=""><g><g>
	<g>
		<defs>
			<circle id="SVGID_1_" cx="88.496" cy="88.496" r="88.496" data-original="#000000"/>
		</defs>
		<use xmlns:xlink="http://www.w3.org/1999/xlink" xlink:href="#SVGID_1_" style="overflow:visible;fill:#F5F5F5;"/>
		<clipPath id="SVGID_2_">
			<use xmlns:xlink="http://www.w3.org/1999/xlink" xlink:href="#SVGID_1_" style="overflow:visible;"/>
		</clipPath>
		<g style="clip-path:url(#SVGID_2_);">
			<g>
				<g>
					<g>
						<path style="fill:#E9D2BB;" d="M147.189,169.084H30.668v-0.896c0-2.432-0.112-5.216-0.23-8.161        c-0.499-12.417-1.123-27.869,5.871-34.862c4.125-4.128,15.904-12.334,33.881-16.931l0.44-0.113l0.193,0.158        c3.651-3.991,5.499-8.807,5.499-14.323v-2.069h25.212v2.069c0,5.464,1.864,10.271,5.542,14.288l0.154-0.123l0.438,0.113        c17.979,4.597,29.758,12.807,33.878,16.931c6.996,6.993,6.37,22.446,5.872,34.866c-0.119,2.944-0.23,5.726-0.23,8.157V169.084        z" data-original="#E9D2BB" class=""/>
					</g>
					<g>
						<g>
							<path style="fill:#E87A66" d="M147.189,180.724H30.668v-12.535c0-2.432-0.112-5.216-0.23-8.161         c-0.499-12.417-1.123-27.869,5.871-34.862c4.125-4.128,15.904-12.334,33.881-16.931l0.44-0.113l17.788,20.685l18.812-20.685         l0.438,0.113c17.979,4.597,29.758,12.807,33.878,16.931c6.996,6.993,6.37,22.446,5.872,34.866         c-0.119,2.944-0.23,5.726-0.23,8.157V180.724z" data-original="#CDCE81" class="active-path" data-old_color="#CDCE81"/>
						</g>
					</g>
					<rect x="103.083" y="149.568" style="fill:#E87A66" width="19.75" height="31.5" data-original="#789B7B" class="" data-old_color="#789B7B"/>
					<g>
						<path style="fill:#FFE5CB;" d="M88.92,108.903c-13.563,0-24.084-13.062-28.324-25.488c-2.984,0.326-5.353-2.911-5.353-7.026        c0-2.801,1.153-5.275,2.929-6.393c-0.004-0.232-0.01-0.434-0.01-0.632c0-17.345,12.361-29.003,30.758-29.003        c18.397,0,30.758,11.658,30.758,29.003c0,0.205-0.003,0.411-0.008,0.618c1.783,1.111,2.945,3.591,2.945,6.406        c0,4.126-2.378,7.392-5.367,7.023C113.004,95.842,102.485,108.903,88.92,108.903z" data-original="#FFE5CB" class=""/>
					</g>
					<path style="fill:#353435" d="M57.667,69.235c0,0,22-2.666,29-18.333c-10.333,26.333,6.667,3.666,6.667,3.666       s-0.333,19.334,4.667,9.334s3.666,8.332,7.333,0.666s3.667,6.667,5.667,1.667s8,3,8,3s6.667-39-25-41       C59.682,26.068,56.333,45.235,57.667,69.235z" data-original="#472330" class="" data-old_color="#472330"/>
					
						<ellipse transform="matrix(0.9679 -0.2515 0.2515 0.9679 -17.0008 17.1896)" style="fill:#FFE5CB;" cx="58.742" cy="75.099" rx="4.418" ry="8.749" data-original="#FFE5CB" class=""/>
					
						<ellipse transform="matrix(-0.9781 -0.2081 0.2081 -0.9781 220.8862 173.0796)" style="fill:#FFE5CB;" cx="119.547" cy="74.921" rx="4.418" ry="8.75" data-original="#FFE5CB" class=""/>
				</g>
			</g>
		</g>
	</g>
</g></g> </svg>
